<svg width="107" height="32" viewBox="0 0 107 32" fill="none" xmlns="http://www.w3.org/2000/svg">
<mask id="mask0_1149_450" style="mask-type:luminance" maskUnits="userSpaceOnUse" x="0" y="0" width="107" height="32">
<path d="M106.963 0H0.941162V32H106.963V0Z" fill="white"/>
</mask>
<g mask="url(#mask0_1149_450)">
<path d="M66.7006 24.9994C60.5468 29.5352 51.6273 31.9552 43.9478 31.9552C33.1799 31.9552 23.486 27.9726 16.1522 21.3486C15.576 20.8278 16.0923 20.1179 16.7837 20.5235C24.6983 25.1285 34.4844 27.8988 44.5932 27.8988C51.4107 27.8988 58.9104 26.4883 65.8063 23.5612C66.8481 23.1187 67.7193 24.2434 66.7006 24.9994Z" fill="#FF9900"/>
<path d="M69.2589 22.0723C68.4753 21.0674 64.0594 21.5975 62.0773 21.8326C61.4734 21.9064 61.3812 21.3809 61.9251 21.0029C65.4422 18.5276 71.2134 19.2421 71.8864 20.0718C72.5594 20.9061 71.7112 26.6911 68.4062 29.4522C67.8991 29.8763 67.4151 29.6504 67.641 29.0881C68.3831 27.235 70.0472 23.0818 69.2589 22.0723Z" fill="#FF9900"/>
<path d="M62.2154 3.52808V1.12189C62.2154 0.757734 62.4919 0.513428 62.8238 0.513428H73.5964C73.9421 0.513428 74.2187 0.762344 74.2187 1.12189V3.18236C74.214 3.52808 73.9236 3.97981 73.4074 4.69429L67.8252 12.6642C69.8995 12.6135 72.089 12.9223 73.9697 13.9825C74.3938 14.2222 74.5091 14.5726 74.5413 14.9183V17.4858C74.5413 17.8361 74.1541 18.2464 73.7485 18.0343C70.4342 16.2965 66.0321 16.1075 62.3675 18.0528C61.9941 18.2556 61.6023 17.85 61.6023 17.4996V15.0612C61.6023 14.6694 61.6069 14.001 61.9987 13.4064L68.4659 4.13193H62.8377C62.4919 4.13193 62.2154 3.88762 62.2154 3.52808Z" fill="#221F1F"/>
<path d="M22.919 18.5414H19.6416C19.3281 18.5184 19.0792 18.2833 19.0562 17.9836V1.16338C19.0562 0.826882 19.3373 0.559526 19.6877 0.559526H22.7438C23.0619 0.573346 23.3154 0.817661 23.3384 1.12189V3.32065H23.3984C24.1958 1.19564 25.6939 0.20459 27.7129 0.20459C29.7641 0.20459 31.0456 1.19564 31.9675 3.32065C32.7604 1.19564 34.5627 0.20459 36.4941 0.20459C37.8677 0.20459 39.3705 0.771565 40.2878 2.0438C41.3249 3.45894 41.1129 5.5148 41.1129 7.31713L41.1083 17.9329C41.1083 18.2694 40.8271 18.5414 40.4768 18.5414H37.204C36.8767 18.5184 36.614 18.2556 36.614 17.9329V9.01806C36.614 8.30819 36.6785 6.53812 36.5218 5.86512C36.2775 4.73578 35.5445 4.41772 34.595 4.41772C33.8021 4.41772 32.9724 4.94782 32.6359 5.79598C32.2994 6.64414 32.3317 8.06388 32.3317 9.01806V17.9329C32.3317 18.2694 32.0505 18.5414 31.7002 18.5414H28.4274C28.0955 18.5184 27.8374 18.2556 27.8374 17.9329L27.8327 9.01806C27.8327 7.14197 28.1416 4.38085 25.8138 4.38085C23.4583 4.38085 23.5505 7.07282 23.5505 9.01806V17.9329C23.5505 18.2694 23.2693 18.5414 22.919 18.5414Z" fill="#221F1F"/>
<path d="M83.4932 0.20459C88.3563 0.20459 90.9883 4.38085 90.9883 9.69106C90.9883 14.8215 88.0797 18.8917 83.4932 18.8917C78.7177 18.8917 76.1179 14.7155 76.1179 9.51128C76.1179 4.27483 78.75 0.20459 83.4932 0.20459ZM83.5209 3.63871C81.1055 3.63871 80.9533 6.92993 80.9533 8.98118C80.9533 11.037 80.9211 15.4253 83.4932 15.4253C86.0331 15.4253 86.1529 11.8852 86.1529 9.72793C86.1529 8.30819 86.093 6.61187 85.6643 5.26588C85.2955 4.09506 84.5626 3.63871 83.5209 3.63871Z" fill="#221F1F"/>
<path d="M97.2942 18.5414H94.0307C93.7034 18.5184 93.4406 18.2556 93.4406 17.9329L93.436 1.10806C93.4637 0.799222 93.7357 0.559526 94.0675 0.559526H97.1052C97.391 0.573346 97.6261 0.766956 97.6906 1.0297V3.60183H97.7506C98.6679 1.30166 99.9539 0.20459 102.217 0.20459C103.688 0.20459 105.121 0.734689 106.043 2.1867C106.901 3.53269 106.901 5.79598 106.901 7.42315V18.0113C106.864 18.3063 106.592 18.5414 106.269 18.5414H102.982C102.683 18.5184 102.434 18.2971 102.402 18.0113V8.87516C102.402 7.03595 102.614 4.34397 100.35 4.34397C99.5529 4.34397 98.82 4.87868 98.4558 5.68996C97.9949 6.71789 97.935 7.74121 97.935 8.87516V17.9329C97.9304 18.2694 97.6446 18.5414 97.2942 18.5414Z" fill="#221F1F"/>
<path d="M53.6277 10.5069V9.79703C51.2584 9.79703 48.7554 10.304 48.7554 13.0974C48.7554 14.5126 49.4883 15.4714 50.7467 15.4714C51.6687 15.4714 52.4938 14.9044 53.0146 13.9825C53.66 12.8485 53.6277 11.7837 53.6277 10.5069ZM56.9328 18.4952C56.7161 18.6888 56.4027 18.7027 56.1584 18.5736C55.0705 17.6701 54.8769 17.2506 54.2777 16.3887C52.4799 18.2233 51.2077 18.7718 48.8753 18.7718C46.1188 18.7718 43.9707 17.0709 43.9707 13.6644C43.9707 11.0047 45.4135 9.19318 47.4647 8.30815C49.244 7.52452 51.7286 7.38624 53.6277 7.16959V6.74551C53.6277 5.96649 53.6876 5.04458 53.2313 4.37159C52.8303 3.76773 52.0651 3.51882 51.3921 3.51882C50.1429 3.51882 49.0274 4.15955 48.7554 5.4871C48.7001 5.78211 48.4835 6.07251 48.1884 6.08634L45.0079 5.74523C44.7405 5.68531 44.4455 5.46866 44.5192 5.05841C45.2522 1.20482 48.7324 0.0432129 51.8484 0.0432129C53.4433 0.0432129 55.5269 0.467292 56.7853 1.675C58.3802 3.16388 58.2281 5.1506 58.2281 7.31248V12.4198C58.2281 13.9548 58.8642 14.6278 59.4634 15.4575C59.6755 15.7525 59.7216 16.1075 59.4542 16.3287C58.7858 16.8865 57.5965 17.9236 56.942 18.5044L56.9328 18.4952Z" fill="#221F1F"/>
<path d="M10.6621 10.5069V9.79703C8.29283 9.79703 5.78984 10.304 5.78984 13.0974C5.78984 14.5126 6.52276 15.4714 7.78117 15.4714C8.70308 15.4714 9.52819 14.9044 10.0491 13.9825C10.6944 12.8485 10.6621 11.7837 10.6621 10.5069ZM13.9672 18.4952C13.7505 18.6888 13.4371 18.7027 13.1928 18.5736C12.1049 17.6701 11.9113 17.2506 11.3121 16.3887C9.51436 18.2233 8.24213 18.7718 5.90969 18.7718C3.15318 18.7718 1.00513 17.0709 1.00513 13.6644C1.00513 11.0047 2.44792 9.19318 4.49917 8.30815C6.27846 7.52452 8.76301 7.38624 10.6621 7.16959V6.74551C10.6621 5.96649 10.7221 5.04458 10.2657 4.37159C9.86469 3.76773 9.0995 3.51882 8.42651 3.51882C7.17732 3.51882 6.06181 4.15955 5.78984 5.4871C5.73453 5.78211 5.51788 6.07251 5.22287 6.08634L2.04228 5.74523C1.77492 5.68531 1.47991 5.46866 1.55366 5.05841C2.28658 1.20482 5.76679 0.0432129 8.88286 0.0432129C10.4778 0.0432129 12.5613 0.467292 13.8197 1.675C15.4146 3.16388 15.2625 5.1506 15.2625 7.31248V12.4198C15.2625 13.9548 15.8986 14.6278 16.4978 15.4575C16.7099 15.7525 16.756 16.1075 16.4886 16.3287C15.8202 16.8865 14.631 17.9236 13.9764 18.5044L13.9672 18.4952Z" fill="#221F1F"/>
</g>
</svg>
