<svg width="98" height="32" viewBox="0 0 98 32" fill="none" xmlns="http://www.w3.org/2000/svg">
<g clip-path="url(#clip0_1149_463)">
<mask id="mask0_1149_463" style="mask-type:luminance" maskUnits="userSpaceOnUse" x="0" y="0" width="98" height="32">
<path d="M97.8637 0H0.136475V32H97.8637V0Z" fill="white"/>
</mask>
<g mask="url(#mask0_1149_463)">
<path d="M37.6648 27.9145C34.0284 25.572 29.0933 25.1609 21.1343 27.3691C12.6495 29.363 9.8205 30.6411 6.10528 28.0753C4.67797 26.8149 4.16625 24.7854 4.54836 21.8622C5.43463 17.0967 7.82968 12.5108 12.0839 7.42382C14.4585 4.77761 16.6612 2.50667 19.5698 1.59475C21.7989 1.02268 21.5905 2.77456 21.3208 3.02511C21.0362 3.02511 20.558 3.06995 20.1885 3.31109C19.8886 3.54368 19.0654 4.29471 19.0212 5.30497C18.9574 6.8515 20.5579 6.52961 21.2482 5.68048C21.9923 4.72361 23.092 2.89123 22.227 1.18344C21.8644 0.575579 21.238 0.155474 20.4602 0.012426C17.7969 -0.139784 15.3164 1.12982 13.0273 2.53342C8.02098 6.01117 4.01624 10.8301 1.75019 16.1049C0.443696 19.2875 -0.737826 23.8465 1.03323 27.5571C2.40325 30.1317 5.2476 31.4993 8.64106 31.2133C11.0211 30.9633 13.899 30.194 15.8346 29.7296C17.7702 29.2644 27.6784 25.8585 30.934 31.7862C30.934 31.7862 32.0166 29.6847 34.722 29.6399C36.9463 29.4347 40.155 30.2838 42.4918 32C41.7133 30.8292 39.5061 29.1037 37.6648 27.9145Z" fill="#E61D2A"/>
<path d="M22.1445 8.02273C20.2913 6.80689 16.5667 9.13133 13.5834 13.1185C10.8554 16.6949 9.67741 20.8516 10.9593 22.7738C12.8664 25.0356 16.4065 21.7457 17.912 19.9848L18.1063 19.779C19.1301 18.6793 19.9211 17.3561 20.6866 16.0865C20.6866 16.0865 21.3903 14.9242 21.4239 14.8705C21.8587 14.7903 22.3826 14.6651 22.9728 14.4952C22.9644 14.5218 20.7145 18.3036 20.944 20.1807C21.0155 20.7534 20.9609 22.8454 23.0034 23.48C25.7256 23.9363 27.8993 21.8261 29.8169 19.9486C29.8169 19.9486 30.1437 19.636 30.3285 19.4576C30.2817 19.6448 30.2208 19.8946 30.2208 19.8946C29.4238 22.6662 30.4981 23.2477 31.1701 23.4623C33.201 24.0527 35.6272 21.1022 35.635 21.1022C35.5721 22.0316 35.3881 22.8004 36.3678 23.4173C37.2926 23.7484 38.2284 23.2438 38.9398 22.7699C41.502 20.964 43.5663 18.1376 45.2336 15.6944H44.1701C44.1575 15.6944 41.5458 19.4799 39.8498 20.3027C39.8472 20.3027 39.5386 20.4611 39.3607 20.3358C39.1406 20.1479 39.2274 19.7575 39.3634 19.4809C39.372 19.4628 45.9115 8.12058 45.9115 8.12058H42.8238C42.8238 8.12058 42.4865 8.66627 42.459 8.70206C42.4383 8.68423 42.3888 8.59041 42.3545 8.54545C40.4415 5.89924 36.1093 9.96958 32.8478 14.6898C31.5921 16.5048 29.9934 18.5484 28.3357 20.0235C28.3357 20.0235 25.88 22.2747 24.8306 20.6573C24.4471 19.9777 24.5651 18.9842 24.7814 18.3317C26.0031 14.854 28.1083 11.6978 30.5038 9.79331C31.1801 9.26619 31.9151 9.11374 32.2799 9.33729C32.6274 9.54325 32.6835 10.0524 32.4636 10.4012C31.9057 10.3833 31.4587 10.5529 31.0953 10.9284C30.3795 11.6794 30.1307 12.4037 30.3583 13.0833C31.464 14.6567 33.6691 11.5454 33.5624 9.65014C33.5243 8.97057 33.1618 8.32703 32.6207 8.01382C31.8143 7.53129 30.5842 7.65626 29.7881 8.04094C28.7224 8.44308 27.0354 9.84657 26.0506 10.9374C24.811 12.3055 22.6849 13.8252 22.02 13.655C22.2378 13.0736 24.0337 9.39934 22.1445 8.02273ZM37.0309 13.4583C37.6316 12.627 39.3798 10.4008 39.806 10.0254C41.2394 8.76436 41.8123 9.31921 41.8619 9.71232C40.5242 12.1082 38.9453 14.853 37.4608 17.3206C37.4638 17.3118 36.9962 18.0268 36.9962 18.0268C36.3406 19.0279 35.6804 19.8862 34.6036 20.4852C34.45 20.5301 34.1969 20.5481 34.0285 20.4225C33.8257 20.2884 33.7457 20.0648 33.7685 19.8322C33.833 19.0636 34.6157 16.7128 37.0309 13.4583ZM20.2334 14.8976C20.2334 14.8976 20.2065 14.9783 20.1932 15.0047C20.1898 15.0047 18.847 17.1948 18.847 17.1948C18.0366 18.2768 17.0248 19.636 15.76 20.2884C15.385 20.4136 14.8668 20.4942 14.6027 20.1636C14.0429 19.493 14.3314 18.5632 14.5658 17.8123L14.6488 17.5441C15.3209 15.7205 16.3874 14.1109 17.4253 12.6179C17.4383 12.6091 17.4674 12.6002 17.4779 12.6002C17.4803 12.6091 17.4845 12.6091 17.4863 12.627C18.1377 13.8784 19.359 14.4593 20.2724 14.7279C20.2779 14.7279 20.2837 14.7368 20.2837 14.7548C20.2839 14.7814 20.269 14.8175 20.2334 14.8976ZM21.5056 12.3142C21.4997 12.332 20.9075 13.6908 20.9075 13.6908C20.8219 13.7623 20.6865 13.7266 20.5314 13.6908L20.2655 13.6458C19.4308 13.3867 18.8012 12.8324 18.6071 12.1709C18.3393 10.8835 19.4391 9.8732 19.9237 9.50684C20.3887 9.18471 21.1115 9.01491 21.5312 9.34584C21.7901 9.64989 21.8882 10.0431 21.8882 10.4725C21.8883 11.0535 21.709 11.7061 21.5056 12.3142Z" fill="#E61D2A"/>
<path d="M60.5403 16.4621C60.2426 15.8186 59.5358 15.4072 58.7826 15.4518C56.3366 15.6755 53.9441 17.687 52.688 20.5744C52.0288 22.0587 51.669 23.2833 51.4331 25.2323C52.1937 24.3564 53.7451 22.9171 55.5057 22.1303C55.5057 22.1303 55.7452 20.2618 56.9668 18.5989C57.4291 17.9103 58.3542 16.8018 59.3929 17.0967C60.3004 17.4009 59.9815 19.9131 58.7753 22.3443C57.8828 24.1326 56.517 25.9211 55.1352 27.1545C53.9135 28.1917 52.1059 29.4432 50.5244 28.4778C49.5283 27.888 49.0203 26.6539 49.1276 25.0626C49.6036 20.5479 51.6586 16.7036 54.5996 12.323C57.6321 8.25523 60.9749 4.0802 65.478 1.85373C66.3965 1.38891 67.2471 1.28166 67.9824 1.56775C67.9824 1.56775 63.7552 3.8922 61.7402 8.19256C61.2276 9.28344 60.5147 10.7581 61.2326 12.0635C61.6078 12.7428 62.2739 12.7966 62.8102 12.7608C65.2801 12.1885 66.8759 9.88202 68.1797 7.77233C68.9356 6.17205 69.6075 4.58068 69.6075 2.81048C69.6075 2.59597 69.5964 2.30999 69.5781 2.09524C70.7582 1.46966 73.1779 2.57801 73.1779 2.57801C75.0688 3.20407 79.0951 6.28859 80.4532 6.87837C81.1157 6.10963 82.2044 4.94753 82.8174 4.36629L81.93 3.82086C80.5093 2.95365 79.0076 2.13103 77.5295 1.31757C74.1727 -0.514935 71.4403 0.128598 70.0497 0.629328C69.5032 0.825882 69.0036 0.995805 69.0036 0.995805C67.9716 -0.130624 66.2791 -0.0236119 65.032 0.280564C60.5471 1.56788 56.383 4.70578 51.9187 10.1505C48.6365 14.4151 46.6006 18.0985 45.5155 21.737C44.6791 24.1864 44.4249 27.7894 46.4664 29.9262C48.2022 31.7405 50.5037 31.3475 52.1291 30.6951C55.6506 28.9607 58.8156 25.2235 60.3926 20.9232C60.7732 19.6449 61.1956 17.8391 60.5403 16.4621ZM68.6378 2.98944C68.1716 8.33573 64.0159 11.474 62.9877 11.7239C62.3645 11.8489 61.3013 11.5719 62.2504 9.32827C63.6483 6.30618 66.0348 3.7406 68.5954 2.42629C68.6577 2.64984 68.6561 2.79252 68.6378 2.98944Z" fill="#E61D2A"/>
<path d="M93.2894 3.66855C91.0541 4.93827 88.7368 5.76052 85.9317 5.47455C85.1543 6.35092 84.3974 7.2538 83.6997 8.18343C87.6368 9.18476 91.8107 6.95866 94.1384 4.84006C96.6009 2.70325 97.8637 0.0124512 97.8637 0.0124512C97.8637 0.0124512 96.0179 2.12214 93.2894 3.66855Z" fill="#E61D2A"/>
<path d="M49.389 10.8082L51.0436 8.12073H48.1113L46.4573 10.8082H49.389Z" fill="#E61D2A"/>
<path d="M85.9199 28.1635C85.6046 28.378 85.1616 28.2131 85.3273 27.7215C85.7398 26.4698 87.3799 23.9192 87.3799 23.9192L91.9482 15.8168H88.819C88.6703 16.0612 88.3522 16.6222 88.3522 16.6222C88.2074 16.3811 87.7745 15.8448 87.5963 15.729C86.8318 15.2459 85.7101 15.4743 84.9364 15.9122C81.5722 17.8794 79.1177 21.7659 77.182 24.7968C77.182 24.7968 75.1442 28.1659 74.013 28.4164C73.1299 28.488 73.2211 27.2984 73.2593 27.0213C73.6007 25.0183 74.3937 23.1143 75.1926 21.3888C76.8174 20.2623 78.6718 18.7873 80.357 17.1691C84.0142 13.6732 87.0974 9.71264 87.548 8.82759C87.548 8.82759 87.0602 8.92605 86.4843 8.94377C83.6707 12.8685 77.9131 18.5726 76.1676 19.4218C76.9408 17.5619 81.9368 8.68442 86.1883 4.43793L86.8573 3.79403C87.8918 2.78377 88.9637 1.74677 89.799 1.57684C89.8872 1.56793 90.0008 1.57684 90.0989 1.7828C90.1362 2.56939 89.8434 3.15062 89.5074 3.81211L89.0366 4.77778C89.0366 4.77778 89.7035 4.65256 90.1414 4.50915C90.6496 3.55301 91.2124 2.47984 91.005 1.20169C90.9357 0.790384 90.638 0.477535 90.2489 0.40595C88.9807 0.164563 87.5985 1.10299 86.4863 1.86318L86.4414 1.88981C80.7242 6.3689 75.8965 12.8238 71.6758 21.6389C71.3699 21.871 70.188 22.1485 69.987 22.0142C70.4038 21.1562 70.9286 20.0026 71.1913 18.751C71.2367 18.3933 71.279 18.0269 71.279 17.6694C71.279 16.8999 71.0943 16.176 70.4049 15.6755C69.5967 15.2731 68.5978 15.461 67.9244 15.7648C64.9073 17.0164 62.6524 20.11 61.0252 22.6576C60.1501 24.2762 59.2775 26.0098 59.0358 27.9949C58.8657 29.5502 59.2121 30.5515 60.0964 31.0524C61.0059 31.517 62.1505 31.0341 62.6002 30.8018C65.6567 29.1926 67.7923 25.9654 69.4758 23.0149C69.5427 23.0061 70.4619 22.9795 71.1571 22.8004C71.1664 22.8004 71.1703 22.8004 71.1857 22.8098C71.1458 22.9434 70.7866 24.0165 70.7866 24.0165C69.7196 27.1454 69.2262 29.2734 70.234 30.5337C71.6742 32.313 74.0583 30.4714 75.9979 28.0392C75.5816 30.9537 77.092 31.4098 78.2434 31.1865C79.566 30.8291 81.0399 29.4162 81.7238 28.6923C81.5042 29.5414 81.5639 31.0614 82.7671 31.2133C83.5918 31.3657 84.2089 30.9172 84.9231 30.5326C87.4846 29.1378 90.5509 24.49 91.347 23.1463H90.3032C89.1715 24.8566 87.7314 27.0991 85.9199 28.1635ZM62.9273 27.8522C62.7649 27.6108 62.711 27.3468 62.7056 27.0615C62.6745 25.3085 64.5605 22.1691 65.8918 20.4589C65.8946 20.4589 65.8946 20.4589 65.8946 20.4589C66.4525 21.6805 67.7159 22.4657 68.4785 22.7966C67.5313 24.9067 64.2827 29.4256 62.9273 27.8522ZM69.0131 21.8533C68.9228 21.9162 67.3297 21.3796 67.0219 19.9045C66.7607 18.6346 67.6352 17.6423 68.4813 17.142C68.8445 16.8558 69.3915 16.7577 69.7928 16.9001C70.1653 17.1508 70.2662 17.5982 70.2662 18.0802C70.2662 18.3758 70.227 18.6795 70.1924 18.9566C70.1924 18.9566 70.1858 19.0104 70.1847 19.0194C69.9192 20.0114 69.5131 20.986 69.0131 21.8533ZM81.7904 27.289L81.4882 27.5572C81.0584 27.9414 80.6162 28.3527 80.0824 28.147C79.9349 28.0933 79.8312 27.8969 79.8063 27.7445C79.782 26.6448 80.2772 25.6258 80.7574 24.6337L80.8806 24.3742C82.2619 22.0677 83.8676 19.3499 86.2258 17.4638C86.6231 17.1771 87.0544 16.9362 87.5095 17.1241C87.6142 17.2222 87.7361 17.3922 87.7361 17.5619C87.7361 17.6158 87.6884 17.7587 87.6608 17.8031C87.0022 18.8675 86.3749 19.9849 85.765 21.0576C84.573 23.1766 83.3363 25.3666 81.7904 27.289Z" fill="#E61D2A"/>
</g>
</g>
<defs>
<clipPath id="clip0_1149_463">
<rect width="98" height="32" fill="white"/>
</clipPath>
</defs>
</svg>
